<?xml version="1.0" encoding="utf-8"?>
<!-- Generator: Adobe Illustrator 22.1.0, SVG Export Plug-In . SVG Version: 6.00 Build 0)  -->
<svg version="1.1" id="图层_1" xmlns="http://www.w3.org/2000/svg" xmlns:xlink="http://www.w3.org/1999/xlink" x="0px" y="0px"
	 viewBox="0 0 256 256" style="enable-background:new 0 0 256 256;" xml:space="preserve">
<g id="ID0.5118491547182202" transform="matrix(0.7737809419631958, 0, 0, 0.7737809419631958, 0.25, -0.4)">
	<g id="Head_1_">
		<path id="Head" style="fill:#1B75BB;stroke:#000000;stroke-width:2.2469;stroke-linecap:round;stroke-linejoin:round;" d="
			M288.8,201.7c0.2,1,6.6,24.1-9.3,45.4c-10.8,14.5-29.7,33-77.8,37.2c-23.6,2.1-44.6-4.1-59.7-13.4c0.2,0.1,0.5,0.2,0.6,0.4
			l-0.2-0.1c-14-6.4-31.8-16.1-43.6-32.5c0,0-6.4,13.3-34.9,13.8c-36,0.7-50.5-19.3-52.4-34.3c-1.8-15.2,2.8-32.8,33.1-37.9
			c25.4-4.3,39.3,3.4,43.1,6l0.2,0.4c2.8-8.7,7.5-12.6,7.5-12.6l-0.4-0.1c-10.7-4.1-24.8-10.4-42.1-20.7
			c-36.1-21.5-35.7-59.4-25.8-73.1c10.3-14.1,41-31.8,84.2-7.7c24.3,13.5,36.7,34.4,42.8,50.1l1.4-0.5c1.7-1,3.4-2,5.4-2.8l0.2-0.5
			c-9.5-22.3-23.8-68.1,16.9-71.7c38.8-3.3,35.5,43.3,32.3,63.2h0.2c5,0.4,10.1,1.1,15.2,2.3c-0.1-0.2-5.9-12.4,1.5-30.1
			c5.8-13.9,31.9-47,53-29.5c22.3,18.7,10.2,39.7-1.5,52.5c-10.1,11.2-21.7,15.7-26.9,17.8l0.1,0.1c1.4,0.9,2.6,1.7,3.8,2.6
			c35.6,25,32.5,76.9,32.5,76.9l-0.1-0.4C288.9,202.2,288.8,201.9,288.8,201.7L288.8,201.7z M247.2,120.6c2.2,1.1,4.3,2.3,6.3,3.7
			 M210.7,111.6c-0.5,2.5-1,5-1.6,7.5 M167.1,130.9c-2.1-4.1-4.1-8.2-5.9-12.4 M86.1,202.8c-0.2-5,0.2-10.1,1.6-14.9"/>
		<path id="Hair1" style="fill:#F1F1F2;stroke:#000000;stroke-width:2.2469;" d="M53.9,252.2c-28.7-2.8-40.8-20.4-42.4-33.9
			c-1.8-15.2,2.8-32.8,33.1-37.9c4.4-0.7,8.5-1.1,12.3-1.2h0.2C45.1,202.6,44,230.2,53.8,252L53.9,252.2L53.9,252.2z"/>
		<path id="Hair2" style="fill:#F1F1F2;stroke:#000000;stroke-width:2.2469;" d="M47.6,149.6C17.1,127.7,18,93.1,27.4,80.2
			c9.8-13.4,38.2-30.1,78.2-10.8l-0.4,0.1c-23,7.2-43,25.3-52.3,50.6C49.4,129.8,47.7,139.7,47.6,149.6L47.6,149.6L47.6,149.6z"/>
		<path id="Hair3" style="fill:#F1F1F2;stroke:#000000;stroke-width:2.2469;" d="M151.4,83c-1.7-17.7,3.4-33.9,27-35.8
			c23.8-2.1,31.8,14.7,33.6,32.7l-0.1-0.2c-19.9-7.7-41.6-6-60.4,3.2L151.4,83L151.4,83z"/>
		<path id="Hair4" style="fill:#F1F1F2;stroke:#000000;stroke-width:2.2469;" d="M258.4,50.2c7.4-3.1,15.2-3.1,22.6,3.1
			c14.4,11.9,14.5,24.8,9.7,36h-0.2C284.5,73.2,273.6,59.2,258.4,50.2L258.4,50.2L258.4,50.2z"/>
		<path id="Face_1_" style="fill:#E6E7E8;stroke:#000000;stroke-width:2.2469;" d="M257.5,170.2c-13.6-9.9-35-37.9-35-37.9
			s-0.6,29.6-41,54.5S120,207.9,117.7,237c-1.7,21.9,35.6,51.6,83.7,47.4c48.1-4.2,67-22.7,77.8-37.2c16.3-21.9,9.3-45.5,9.3-45.5
			C284,185.4,277.1,184.6,257.5,170.2L257.5,170.2z"/>
		<g id="L_Eye">
			<path id="Inner_Eye_1_" style="fill:#FFFFFF;" d="M190.6,212.8c-0.2-1.4-1.5-2.2-2.8-2.2c-0.2,0-0.4,0-0.6,0.1
				c-0.7,0.1-1.4,0.6-1.8,1.2c-0.4,0.6-0.5,1.4-0.4,2.1c0.4,1.5,1.8,2.5,3.4,2.2C190,215.9,191,214.4,190.6,212.8L190.6,212.8z"/>
			<path id="Outer_Eye_1_" style="fill:#231F20;" d="M195,211.8c-0.9-3.9-4.9-6.5-8.7-5.6c-2,0.4-3.6,1.6-4.7,3.2
				c-1.1,1.6-1.4,3.6-1,5.5c0.7,3.3,3.7,5.8,7.1,5.8c0.5,0,1,0,1.6-0.1C193.3,219.7,195.7,215.9,195,211.8L195,211.8z M185.1,214
				c-0.1-0.7,0-1.5,0.4-2.1c0.4-0.6,1.1-1.1,1.8-1.2c0.2,0,0.4-0.1,0.6-0.1c1.4,0,2.5,1,2.8,2.2c0.4,1.5-0.6,3.1-2.2,3.4
				C186.9,216.5,185.3,215.5,185.1,214L185.1,214z"/>
		</g>
		<g id="R_Eye">
			<path id="Inner_Eye" style="fill:#FFFFFF;" d="M260.1,208.5c-0.2-1.4-1.5-2.2-2.8-2.2c-0.2,0-0.4,0-0.6,0.1
				c-0.7,0.1-1.4,0.6-1.8,1.2c-0.4,0.6-0.5,1.4-0.4,2.1c0.4,1.5,1.8,2.5,3.4,2.2C259.5,211.6,260.4,210.1,260.1,208.5L260.1,208.5z"
				/>
			<path id="Outer_Eye" style="fill:#231F20;" d="M264.5,207.6c-0.9-3.9-4.9-6.5-8.7-5.6c-2,0.4-3.6,1.6-4.7,3.2
				c-1.1,1.6-1.4,3.6-1,5.5c0.7,3.3,3.7,5.8,7.1,5.8c0.5,0,1,0,1.6-0.1C262.8,215.4,265.4,211.6,264.5,207.6L264.5,207.6z
				 M254.6,209.7c-0.1-0.7,0-1.5,0.4-2.1c0.4-0.6,1.1-1.1,1.8-1.2c0.2,0,0.4-0.1,0.6-0.1c1.4,0,2.5,1,2.8,2.2
				c0.4,1.5-0.6,3.1-2.2,3.4C256.4,212.2,254.8,211.2,254.6,209.7L254.6,209.7z"/>
		</g>
		<path id="Mouth" style="fill:none;stroke:#231F20;stroke-width:2.2469;stroke-linecap:round;" d="M193.3,230.6
			c0,0,14.1,9.9,37.2,6.6c23.1-3.3,26.9-11.7,26.9-11.7"/>
	</g>
</g>
</svg>
